<svg xmlns="http://www.w3.org/2000/svg" width="36" height="36" viewBox="0 0 36 36">
  <defs>
    <style>
      .cls-1 {
        fill: #fff;
        fill-rule: evenodd;
      }
    </style>
  </defs>
  <path id="iPad_potrait_landscape" data-name="iPad potrait &amp; landscape" class="cls-1" d="M527.25,976H547.5a2.25,2.25,0,0,1,2.25,2.25v27a2.252,2.252,0,0,1-2.25,2.25H527.25a2.251,2.251,0,0,1-2.25-2.25v-27A2.25,2.25,0,0,1,527.25,976Zm9,28.12h2.25v2.25h-2.25v-2.25Zm-7.875-24.745h18V1003h-18V979.375Zm0,6.75H549.75V1007.5H528.375V986.125ZM561,989.5v20.25a2.252,2.252,0,0,1-2.25,2.25h-27a2.251,2.251,0,0,1-2.25-2.25V989.5a2.25,2.25,0,0,1,2.25-2.25h27A2.25,2.25,0,0,1,561,989.5Zm-3.375,1.125v18H534v-18h23.625ZM531.75,998.5a1.125,1.125,0,1,1-1.125,1.125A1.125,1.125,0,0,1,531.75,998.5Z" transform="translate(-525 -976)"/>
</svg>
