<svg xmlns="http://www.w3.org/2000/svg" width="28" height="34" viewBox="0 0 28 34">
  <defs>
    <style>
      .cls-1 {
        fill: #fff;
        fill-rule: evenodd;
      }
    </style>
  </defs>
  <path id="statistic_up" data-name="statistic up" class="cls-1" d="M159.077,1004.56h25.846a1.065,1.065,0,1,1,0,2.13H159.077A1.065,1.065,0,1,1,159.077,1004.56Zm2.153-21.248h22.616A2.14,2.14,0,0,1,186,985.437v15.933a2.14,2.14,0,0,1-2.154,2.13H161.23a2.139,2.139,0,0,1-2.153-2.13V985.437A2.14,2.14,0,0,1,161.23,983.312Zm12.924,23.378,2.153,5.31h3.231l-2.154-5.31h-3.23Zm-4.308,0-2.154,5.31h-3.231l2.154-5.31h3.231Zm-1.077-26.565h6.461v2.125h-6.461v-2.125ZM172,978a1.069,1.069,0,0,1,1.077,1.062v1.063a1.077,1.077,0,0,1-2.154,0v-1.063A1.069,1.069,0,0,1,172,978Zm9.129,10.731,1.523,1.5-9.138,9.016-1.523-1.5Zm-12.283,2.641,1.523,1.5-7.615,7.515-1.524-1.5Zm-1.424,1.943,1.523-1.5,6.092,6.011-1.523,1.5Zm16.267-5.814-6.835.769,6.056,5.975Z" transform="translate(-158 -978)"/>
</svg>
