<svg xmlns="http://www.w3.org/2000/svg" width="39" height="27" viewBox="0 0 39 27">
  <defs>
    <style>
      .cls-1 {
        fill: #fff;
        fill-rule: evenodd;
      }
    </style>
  </defs>
  <path id="upload" class="cls-1" d="M901.281,979a12.275,12.275,0,1,1-12.187,12.272A12.23,12.23,0,0,1,901.281,979Zm10.969,7.363a9.819,9.819,0,1,1-9.75,9.819A9.784,9.784,0,0,1,912.25,986.363Zm-21.938,4.909A7.364,7.364,0,1,1,883,998.636,7.339,7.339,0,0,1,890.312,991.272Zm0,8.591h23.157V1006H890.312v-6.137Zm9.75-9.6h4.875v12.052h-4.875V990.268Zm2.438-2.677-6.094,6.136h12.188Z" transform="translate(-883 -979)"/>
</svg>
